# xmcd
#
# Track frame offsets:
#	150
#	15327
#	24832
#	36811
#	49151
#	60946
#	74386
#	90100
#	102188
#	116243
#	128726
#	141069
#	153809
#
# Disc length: 2175 seconds
#
# Revision: 1
# Processed by: cddbd v1.5.2PL0 Copyright (c) Steve Scherf et al.
# Submitted via: audiograbber 1.83.01
#
DISCID=94087d0d
DTITLE=Alec Beckett - Stripes Album
DYEAR=2013
DGENRE=Country
TTITLE0=The Night Hank Williams Came To Town
TTITLE1=Mama Tried
TTITLE2=Take These Chains
TTITLE3=Sea Of Heartbreak
TTITLE4=I Still Miss Someone
TTITLE5=Calling You
TTITLE6=Fly Like A Bird
TTITLE7=Okie From Mukogree
TTITLE8=Wedding Bells
TTITLE9=I Saw The Light
TTITLE10=Your Cheatin' Heart
TTITLE11=You're My Best Friend
TTITLE12=I Got Stripes
EXTD=
EXTT0=
EXTT1=
EXTT2=
EXTT3=
EXTT4=
EXTT5=
EXTT6=
EXTT7=
EXTT8=
EXTT9=
EXTT10=
EXTT11=
EXTT12=
PLAYORDER=
